<svg height="491pt" viewBox="0 -20 491.52 491" width="491pt" xmlns="http://www.w3.org/2000/svg"><path d="m460.800781 450.820312h-430.082031c-16.9375 0-30.71875-13.785156-30.71875-30.71875v-266.242187c0-16.9375 13.78125-30.71875 30.71875-30.71875h430.082031c16.9375 0 30.71875 13.78125 30.71875 30.71875v266.242187c0 16.933594-13.78125 30.71875-30.71875 30.71875zm-430.082031-307.199218c-5.640625 0-10.238281 4.597656-10.238281 10.238281v266.242187c0 5.652344 4.597656 10.238282 10.238281 10.238282h430.082031c5.652344 0 10.238281-4.585938 10.238281-10.238282v-266.242187c0-5.640625-4.585937-10.238281-10.238281-10.238281zm0 0" fill="#ef512a"/><path d="m122.878906 266.5c-22.589844 0-40.957031-18.371094-40.957031-40.960938v-20.480468c0-22.589844 18.367187-40.957032 40.957031-40.957032s40.960938 18.367188 40.960938 40.957032v20.480468c0 22.589844-18.371094 40.960938-40.960938 40.960938zm0-81.921875c-11.292968 0-20.480468 9.1875-20.480468 20.480469v20.480468c0 11.296876 9.1875 20.480469 20.480468 20.480469 11.296875 0 20.480469-9.183593 20.480469-20.480469v-20.480468c0-11.292969-9.183594-20.480469-20.480469-20.480469zm0 0" fill="#403e3e"/><path d="m194.558594 368.898438c-5.652344 0-10.238282-4.574219-10.238282-10.238282v-20.480468c0-8.203126-3.195312-15.914063-9-21.71875-5.796874-5.804688-13.507812-9-21.71875-9h-61.441406c-8.203125 0-15.914062 3.203124-21.71875 9-5.804687 5.804687-9 13.515624-9 21.71875v10.242187h92.160156c5.652344 0 10.238282 4.574219 10.238282 10.238281 0 5.664063-4.585938 10.238282-10.238282 10.238282h-102.402343c-5.652344 0-10.238281-4.574219-10.238281-10.238282v-20.480468c0-13.671876 5.324218-26.519532 14.992187-36.199219 9.675781-9.664063 22.535156-15 36.207031-15h61.441406c13.679688 0 26.539063 5.335937 36.207032 15 9.667968 9.679687 14.992187 22.527343 14.992187 36.199219v20.480468c0 5.664063-4.589843 10.238282-10.242187 10.238282zm0 0" fill="#403e3e"/><path d="m40.960938 389.378906h409.597656v20.480469h-409.597656zm0 0" fill="#ef512a"/><g fill="#403e3e"><path d="m307.199219 164.101562h20.480469v20.476563h-20.480469zm0 0"/><path d="m266.238281 164.101562h20.480469v20.476563h-20.480469zm0 0"/><path d="m225.28125 164.101562h20.480469v20.476563h-20.480469zm0 0"/><path d="m225.28125 205.058594h184.320312v20.480468h-184.320312zm0 0"/><path d="m225.28125 246.019531h184.320312v20.480469h-184.320312zm0 0"/><path d="m225.28125 286.980469h102.398438v20.480469h-102.398438zm0 0"/><path d="m450.558594 102.660156c-5.660156 0-10.238282-4.585937-10.238282-10.238281 0-5.644531-4.585937-10.242187-10.242187-10.242187h-368.636719c-5.644531 0-10.242187 4.597656-10.242187 10.242187 0 5.652344-4.585938 10.238281-10.238281 10.238281-5.652344 0-10.242188-4.585937-10.242188-10.238281 0-16.9375 13.785156-30.722656 30.722656-30.722656h368.636719c16.9375 0 30.722656 13.785156 30.722656 30.722656 0 5.652344-4.578125 10.238281-10.242187 10.238281zm0 0"/><path d="m419.839844 41.21875c-5.664063 0-10.238282-4.585938-10.238282-10.238281 0-5.644531-4.589843-10.242188-10.242187-10.242188h-307.199219c-5.640625 0-10.238281 4.597657-10.238281 10.242188 0 5.652343-4.589844 10.238281-10.242187 10.238281-5.652344 0-10.238282-4.585938-10.238282-10.238281 0-16.9375 13.78125-30.71875 30.71875-30.71875h307.199219c16.9375 0 30.71875 13.78125 30.71875 30.71875 0 5.652343-4.574219 10.238281-10.238281 10.238281zm0 0"/></g></svg>