<svg height="512" viewBox="0 0 24 24" width="512" xmlns="http://www.w3.org/2000/svg"><g id="essentials/alerts/info-circle" fill="none" fill-rule="evenodd"><path id="Fill-66" d="m11.4994898 9.0034c-.552 0-1-.449-1-1s.448-1 1-1 1 .449 1 1-.448 1-1 1m1 7h-2c-.276 0-.49999998-.224-.49999998-.5s.22399998-.5.49999998-.5h.5v-4h-.5c-.276 0-.49999998-.224-.49999998-.5s.22399998-.5.49999998-.5h1c.276 0 .5.224.5.5v4.5h.5c.276 0 .5.224.5.5s-.224.5-.5.5m-1-13c-4.68699998 0-8.49999998 3.813-8.49999998 8.5s3.813 8.5 8.49999998 8.5c4.687 0 8.5-3.813 8.5-8.5s-3.813-8.5-8.5-8.5m0 18c-5.23799998 0-9.49999998-4.262-9.49999998-9.5s4.262-9.5 9.49999998-9.5c5.238 0 9.5 4.262 9.5 9.5s-4.262 9.5-9.5 9.5" fill="rgb(0,0,0)"/></g></svg>