<svg viewBox="0 -34 512 512" xmlns="http://www.w3.org/2000/svg"><path d="m508.167969 131.730469-127.898438-127.898438c-2.46875-2.472656-5.757812-3.832031-9.25-3.832031-3.496093 0-6.78125 1.363281-9.253906 3.832031l-70.335937 70.335938c-2.894532 2.894531-2.894532 7.589843 0 10.488281 2.898437 2.894531 7.59375 2.898438 10.492187 0l69.097656-69.097656 125.421875 125.421875-225.972656 225.972656-26.332031-26.328125c1.070312-1.214844 2.121093-2.449219 3.128906-3.722656l4.042969-5.113282c2.5625.699219 5.363281.425782 7.851562-.921874 6.976563-3.765626 15.640625-3.765626 22.613282 0 1.617187.875 3.363281 1.300781 5.089843 1.300781 2.726563 0 5.402344-1.0625 7.4375-3.097657l17.207031-17.207031c2.894532-2.894531 2.894532-7.589843 0-10.488281-2.898437-2.894531-7.59375-2.894531-10.488281 0l-15.050781 15.046875c-6.410156-2.816406-13.367188-3.796875-20.164062-2.96875l5.242187-6.625 33.484375-33.484375s.003906-.003906.003906-.003906l29.835938-29.835938c9.285156-2.410156 17.742187-7.238281 24.5625-14.058594 21.054687-21.054687 21.054687-55.320312-.003906-76.378906-21.054688-21.054687-55.316407-21.054687-76.375.003906-14.042969 14.042969-19.105469 34.90625-13.53125 53.675782-6.222657 3.765625-11.882813 8.050781-16.515626 12.683594l-29.601562 29.609374c-1.902344 1.90625-4.457031 2.953126-7.1875 2.953126h-.242188c-4.023437 0-9.785156-4.496094-11.421874-8.730469v-25.707031l151.460937-151.464844c9.898437 4.355468 21.109375 4.355468 31.007813 0l59.386718 59.386718c-4.351562 9.902344-4.351562 21.109376 0 31.007813l-120.089844 120.085937c-2.894531 2.898438-2.894531 7.59375 0 10.492188 1.449219 1.445312 3.347657 2.171875 5.246094 2.171875 1.898438 0 3.796875-.726563 5.246094-2.171875l122.246094-122.25c3.324218-3.328125 4.046875-8.363281 1.796875-12.527344-3.769531-6.972656-3.769531-15.636718-.003907-22.605468 2.257813-4.167969 1.535157-9.207032-1.792968-12.53125l-63.703125-63.703126c-3.332031-3.328124-8.363281-4.050781-12.53125-1.800781-6.972657 3.769531-15.636719 3.773438-22.609375 0-4.164063-2.25-9.199219-1.527343-12.53125 1.800781l-143.132813 143.132813v-14.050781l72.785157-72.785156c2.011718-2.011719 2.695312-5.003907 1.753906-7.695313s-3.34375-4.601563-6.175782-4.917969c-12.378906-1.386718-24.550781-2.386718-34.335937-3.1875-6.707031-.550781-12.007813-.984375-15.167969-1.367187-9.742187-1.164063-19.238281 2.191406-29.019531 10.261719l-64.730469 51.066406c-.042968.035156-.089844.070312-.132812.109375-10.359375 8.574219-17.730469 19.960937-21.3125 32.9375-6.710938 24.308593-21.210938 68.511719-30.347656 86.519531l-31.535157 31.539062-1.175781-1.179687c-3.097656-3.097656-7.21875-4.804687-11.597656-4.804687s-8.5 1.707031-11.597656 4.804687l-16.65625 16.660156c-3.097657 3.097657-4.804688 7.214844-4.804688 11.59375 0 4.382813 1.707031 8.5 4.804688 11.597657l94.664062 94.664062c3.097656 3.097656 7.214844 4.804688 11.59375 4.804688 4.382812 0 8.5-1.707032 11.597656-4.804688l16.65625-16.660156c3.097656-3.09375 4.804688-7.214844 4.804688-11.59375s-1.707032-8.5-4.800782-11.597656l-1.210937-1.207032 7.859375-7.859375c3.382812-3.382812 7.597656-5.875 12.191406-7.207031.101563-.027344.199219-.058594.300782-.09375l47.546874-16.011719c10.039063-3.441406 19.296876-8.601562 27.433594-15.207031l27.773438 27.773438c2.472656 2.472656 5.757812 3.832031 9.253906 3.832031s6.777344-1.359375 9.25-3.832031l228.449219-228.445313c2.472656-2.472656 3.832031-5.757813 3.832031-9.253906 0-3.492188-1.359375-6.78125-3.832031-9.25zm-208.878907 125.875-5.433593-5.4375c-1.902344-1.902344-1.902344-4.996094 0-6.902344l10.613281-10.613281c3.210938-3.210938 7.429688-4.816406 11.648438-4.816406 2.96875 0 5.9375.796874 8.554687 2.386718zm-6.246093-94.046875c15.273437-15.277344 40.125-15.273438 55.398437-.003906 14.265625 14.265624 15.203125 36.878906 2.828125 52.25-.023437-5.515626-2.230469-10.65625-6.523437-15.066407-4.730469-5.648437-12.449219-8.914062-22.351563-9.445312-11.992187-.652344-26.4375 2.652343-39.863281 8.492187-2.832031-12.878906.996094-26.710937 10.511719-36.226562zm-164.214844 247.636718-16.65625 16.660157c-.378906.378906-.8125.460937-1.109375.460937-.292969 0-.726562-.082031-1.105469-.460937l-94.664062-94.664063c-.382813-.378906-.460938-.8125-.460938-1.109375s.078125-.726562.460938-1.105469l16.65625-16.660156c.378906-.378906.8125-.460937 1.109375-.460937s.726562.082031 1.105468.460937l94.664063 94.664063c.382813.378906.460937.8125.460937 1.109375s-.078124.726562-.460937 1.105468zm115.203125-94.117187-8.398438 10.621094c-2.171874 2.75-4.523437 5.324219-7.03125 7.71875-.027343.027343-.058593.050781-.085937.078125-.019531.019531-.035156.039062-.054687.058594-7.761719 7.378906-17.023438 13.015624-27.226563 16.515624l-47.367187 15.949219c-6.925782 2.039063-13.28125 5.8125-18.386719 10.917969l-7.859375 7.859375-71.300782-71.300781 32.355469-32.355469c.527344-.53125.972657-1.136719 1.320313-1.796875 9.699218-18.488281 24.824218-64.40625 32.015625-90.445312 2.761719-10.003907 8.433593-18.789063 16.40625-25.40625l64.726562-51.0625c.042969-.035157.089844-.070313.132813-.109376 6.6875-5.53125 12.199218-7.695312 17.867187-7.015624 3.4375.414062 8.859375.855468 15.71875 1.421874 5.515625.453126 11.800781.964844 18.433594 1.578126l-63.910156 63.910156c-1.390625 1.390625-2.171875 3.277344-2.171875 5.242187l.003906 64.953125c0 .644532.085938 1.289063.253906 1.910156 2.914063 10.925782 15.066406 20.507813 26.003906 20.507813h.242188c6.691406 0 12.972656-2.59375 17.679688-7.304687l29.597656-29.601563c4.851562-4.851563 11.144531-9.300781 18.050781-13.007813.027344-.011718.054687-.019531.082031-.03125.316406-.140624.609375-.304687.894532-.480468 12.96875-6.777344 27.929687-10.9375 39.574218-10.296875 5.679688.304687 9.890625 1.816406 11.855469 4.253906.167969.207031.347656.40625.53125.59375 2.625 2.625 2.617187 4.742187 2.320313 6.289063-.234376 1.199218-.785157 2.511718-1.59375 3.875-12.242188-9.050782-29.644532-8.039063-40.730469 3.046874l-10.613281 10.613282c-3.722657 3.726562-5.773438 8.675781-5.773438 13.941406s2.050781 10.214844 5.773438 13.9375l5.4375 5.4375-28.554688 28.550781c-.203125.203125-.394531.417969-.570312.644531l-15.628907 19.765626c-.007812.007812-.015625.015624-.019531.023437zm0 0"/></svg>