<svg id="Layer_1" enable-background="new 0 0 60 60" height="512" viewBox="0 0 60 60" width="512" xmlns="http://www.w3.org/2000/svg"><path d="m10.24 34.59c-.5-.24-1.09-.04-1.34.45-.24.5-.04 1.1.45 1.34.83.41 1.72.62 2.65.62h2.29c.28 0 .53-.11.71-.3.18.19.43.3.71.3h4.57c.28 0 .53-.11.71-.3.18.19.43.3.71.3h4.57c.28 0 .53-.11.71-.3.18.19.43.3.71.3h4.57c.28 0 .53-.11.71-.3.18.19.43.3.71.3h4.57c.28 0 .53-.11.71-.3.18.19.43.3.71.3h4.57c.28 0 .53-.11.71-.3.18.19.43.3.71.3h2.34c.19 0 .39.01.57.04.05.01.1.01.14.01.49 0 .92-.36.99-.86.08-.55-.3-1.05-.85-1.13-.27-.04-.56-.09-.85-.06h-2.29c-.28 0-.53.11-.71.3-.18-.19-.43-.3-.71-.3h-4.57c-.28 0-.53.11-.71.3-.18-.19-.43-.3-.71-.3h-4.57c-.28 0-.53.11-.71.3-.18-.19-.43-.3-.71-.3h-4.57c-.28 0-.53.11-.71.3-.18-.19-.43-.3-.71-.3h-4.57c-.28 0-.53.11-.71.3-.18-.19-.43-.3-.71-.3h-4.57c-.28 0-.53.11-.71.3-.18-.19-.43-.3-.71-.3h-2.34c-.62 0-1.21-.14-1.76-.41z"/><path d="m52.87 40.87c.07 0 .15-.01.23-.03.54-.12.87-.66.75-1.2-.27-1.18-.89-2.24-1.79-3.06-.41-.37-1.04-.35-1.41.06s-.35 1.04.06 1.41c.6.55 1.01 1.25 1.19 2.04.1.47.52.78.97.78z"/><path d="m50 45.69c.19.28.51.43.83.43.19 0 .39-.06.56-.18 1-.69 1.76-1.65 2.2-2.77.2-.51-.05-1.09-.57-1.29-.51-.2-1.09.05-1.29.57-.29.75-.8 1.39-1.47 1.85-.46.32-.58.94-.26 1.39z"/><path d="m16.57 27c.55 0 1-.45 1-1s-.45-1-1-1h-3c-.55 0-1 .45-1 1s.45 1 1 1z"/><path d="m22.57 27c.55 0 1-.45 1-1s-.45-1-1-1h-3c-.55 0-1 .45-1 1s.45 1 1 1z"/><path d="m27 45c-.55 0-1 .45-1 1s.45 1 1 1h3c.55 0 1-.45 1-1s-.45-1-1-1z"/><path d="m21 45c-.55 0-1 .45-1 1s.45 1 1 1h3c.55 0 1-.45 1-1s-.45-1-1-1z"/><path d="m10.31 25.24c-1.16.34-2.18 1.02-2.96 1.96-.35.43-.29 1.06.14 1.41.19.15.41.23.63.23.29 0 .58-.13.77-.37.51-.63 1.2-1.08 1.97-1.31.53-.15.83-.71.68-1.24-.14-.53-.7-.84-1.23-.68z"/><path d="m33 45c-.55 0-1 .45-1 1s.45 1 1 1h3c.55 0 1-.45 1-1s-.45-1-1-1z"/><path d="m40.57 27c.55 0 1-.45 1-1s-.45-1-1-1h-3c-.55 0-1 .45-1 1s.45 1 1 1z"/><path d="m6.02 30.49c-.01.17-.02.34-.02.51 0 1.03.27 2.06.77 2.95.18.33.52.51.87.51.17 0 .34-.04.49-.13.48-.27.65-.88.38-1.36-.33-.6-.51-1.28-.51-1.97 0-.12.01-.23.01-.34.05-.55-.36-1.03-.91-1.08-.55-.06-1.03.36-1.08.91z"/><path d="m34.57 27c.55 0 1-.45 1-1s-.45-1-1-1h-3c-.55 0-1 .45-1 1s.45 1 1 1z"/><path d="m39 45c-.55 0-1 .45-1 1s.45 1 1 1h3c.55 0 1-.45 1-1s-.45-1-1-1z"/><path d="m48 45h-3c-.55 0-1 .45-1 1s.45 1 1 1h3c.55 0 1-.45 1-1s-.45-1-1-1z"/><path d="m28.57 27c.55 0 1-.45 1-1s-.45-1-1-1h-3c-.55 0-1 .45-1 1s.45 1 1 1z"/><path d="m48 9c-3.31 0-6 2.69-6 6 0 2.29 2.76 7.39 4.25 10h-2.68c-.55 0-1 .45-1 1s.45 1 1 1h3c.28 0 .53-.12.71-.3.19.19.45.3.72.3.35 0 .67-.18.85-.48.53-.87 5.15-8.56 5.15-11.52 0-3.31-2.69-6-6-6zm0 15.03c-1.81-3.15-4-7.48-4-9.03 0-2.21 1.79-4 4-4s4 1.79 4 4c0 1.55-2.19 5.88-4 9.03z"/><path d="m11 51c2.41 0 4.43-1.72 4.9-4h2.1c.55 0 1-.45 1-1s-.45-1-1-1h-2.1c-.46-2.28-2.48-4-4.9-4-2.76 0-5 2.24-5 5s2.24 5 5 5zm0-8c1.65 0 3 1.35 3 3s-1.35 3-3 3-3-1.35-3-3 1.35-3 3-3z"/></svg>