<svg xmlns="http://www.w3.org/2000/svg" xmlns:xlink="http://www.w3.org/1999/xlink" width="92.547" height="30.123" viewBox="0 0 92.547 30.123">
  <defs>
    <filter id="Polygon_37" x="0" y="0.123" width="30" height="30" filterUnits="userSpaceOnUse">
      <feOffset dy="3" input="SourceAlpha"/>
      <feGaussianBlur stdDeviation="3" result="blur"/>
      <feFlood flood-opacity="0.161"/>
      <feComposite operator="in" in2="blur"/>
      <feComposite in="SourceGraphic"/>
    </filter>
    <filter id="Polygon_46" x="15.637" y="0.123" width="30" height="30" filterUnits="userSpaceOnUse">
      <feOffset dy="3" input="SourceAlpha"/>
      <feGaussianBlur stdDeviation="3" result="blur-2"/>
      <feFlood flood-opacity="0.161"/>
      <feComposite operator="in" in2="blur-2"/>
      <feComposite in="SourceGraphic"/>
    </filter>
    <filter id="Polygon_47" x="31.274" y="0.123" width="30" height="30" filterUnits="userSpaceOnUse">
      <feOffset dy="3" input="SourceAlpha"/>
      <feGaussianBlur stdDeviation="3" result="blur-3"/>
      <feFlood flood-opacity="0.161"/>
      <feComposite operator="in" in2="blur-3"/>
      <feComposite in="SourceGraphic"/>
    </filter>
    <filter id="Polygon_48" x="46.91" y="0.123" width="30" height="30" filterUnits="userSpaceOnUse">
      <feOffset dy="3" input="SourceAlpha"/>
      <feGaussianBlur stdDeviation="3" result="blur-4"/>
      <feFlood flood-opacity="0.161"/>
      <feComposite operator="in" in2="blur-4"/>
      <feComposite in="SourceGraphic"/>
    </filter>
    <filter id="Polygon_49" x="62.424" y="0" width="30.123" height="30.123" filterUnits="userSpaceOnUse">
      <feOffset dy="3" input="SourceAlpha"/>
      <feGaussianBlur stdDeviation="3" result="blur-5"/>
      <feFlood flood-opacity="0.161"/>
      <feComposite operator="in" in2="blur-5"/>
      <feComposite in="SourceGraphic"/>
    </filter>
  </defs>
  <g id="Group_4462" data-name="Group 4462" transform="translate(9 6)">
    <g id="Group_3784" data-name="Group 3784">
      <g transform="matrix(1, 0, 0, 1, -9, -6)" filter="url(#Polygon_37)">
        <path id="Polygon_37-2" data-name="Polygon 37" d="M6,0,7.44,4.549,12,4.584,8.33,7.429,9.708,12,6,9.209,2.292,12,3.67,7.429,0,4.584l4.56-.034Z" transform="translate(9 6.12)" fill="#f1cd51"/>
      </g>
      <g transform="matrix(1, 0, 0, 1, -9, -6)" filter="url(#Polygon_46)">
        <path id="Polygon_46-2" data-name="Polygon 46" d="M6,0,7.44,4.549,12,4.584,8.33,7.429,9.708,12,6,9.209,2.292,12,3.67,7.429,0,4.584l4.56-.034Z" transform="translate(24.64 6.12)" fill="#f1cd51"/>
      </g>
      <g transform="matrix(1, 0, 0, 1, -9, -6)" filter="url(#Polygon_47)">
        <path id="Polygon_47-2" data-name="Polygon 47" d="M6,0,7.44,4.549,12,4.584,8.33,7.429,9.708,12,6,9.209,2.292,12,3.67,7.429,0,4.584l4.56-.034Z" transform="translate(40.27 6.12)" fill="#f1cd51"/>
      </g>
      <g transform="matrix(1, 0, 0, 1, -9, -6)" filter="url(#Polygon_48)">
        <path id="Polygon_48-2" data-name="Polygon 48" d="M6,0,7.44,4.549,12,4.584,8.33,7.429,9.708,12,6,9.209,2.292,12,3.67,7.429,0,4.584l4.56-.034Z" transform="translate(55.91 6.12)" fill="#f1cd51"/>
      </g>
      <g id="Group_4421" data-name="Group 4421" transform="translate(62.424)">
        <g id="Group_4420" data-name="Group 4420">
          <g transform="matrix(1, 0, 0, 1, -71.42, -6)" filter="url(#Polygon_49)">
            <path id="Polygon_49-2" data-name="Polygon 49" d="M6.061,0,7.516,4.6l4.607.034L8.415,7.506l1.392,4.617L6.061,9.3,2.315,12.123,3.708,7.506,0,4.631,4.607,4.6Z" transform="translate(71.42 6)" fill="#8a8f93"/>
          </g>
        </g>
      </g>
    </g>
  </g>
</svg>
