<svg id="Layer_1" height="512" viewBox="0 0 512 512" width="512" xmlns="http://www.w3.org/2000/svg" data-name="Layer 1"><path d="m50.371 264.2a208.577 208.577 0 0 0 40.662 115.27 205.065 205.065 0 0 0 112.823 76.716 207.307 207.307 0 0 0 241.452-112.486 11.153 11.153 0 0 0 -20.222-9.415 185.007 185.007 0 0 1 -351.947-62.751l21.646 28.012a11.153 11.153 0 1 0 17.65-13.64l-41.503-53.706a11.154 11.154 0 0 0 -16.193-1.553l-50.954 44.838a11.153 11.153 0 0 0 14.734 16.746z"/><path d="m492.957 217.075-28.442 28.478a207.292 207.292 0 0 0 -394.832-77.253 11.153 11.153 0 0 0 20.217 9.418 185 185 0 0 1 352.2 66.161l-25.726-29.2a11.152 11.152 0 1 0 -16.734 14.747l44.873 50.924a11.153 11.153 0 0 0 8.02 3.773q.174.006.348.006a11.151 11.151 0 0 0 7.89-3.272l47.963-48.025a11.152 11.152 0 0 0 -15.781-15.761z"/><path d="m257.5 267.153a11.153 11.153 0 0 0 11.148-11.153v-106.053a11.153 11.153 0 1 0 -22.305 0v94.9h-83.863a11.153 11.153 0 1 0 0 22.306z"/></svg>