<svg xmlns="http://www.w3.org/2000/svg" xmlns:xlink="http://www.w3.org/1999/xlink" width="14" height="14" viewBox="0 0 14 14">
  <defs>
    <clipPath id="clip-path">
      <rect id="Rectangle_197" data-name="Rectangle 197" width="14" height="14" fill="#fff"/>
    </clipPath>
  </defs>
  <g id="Mask_Group_5" data-name="Mask Group 5" clip-path="url(#clip-path)">
    <path id="icons8_checked_radio_button_3" d="M8.6,1.6a7,7,0,1,0,7,7A7.011,7.011,0,0,0,8.6,1.6ZM8.6,3A5.6,5.6,0,1,1,3,8.6,5.589,5.589,0,0,1,8.6,3Zm0,1.4a4.21,4.21,0,1,0,3.912,2.678L8.6,10.99,6.005,8.395l.99-.99L8.6,9.01l3.165-3.165A4.188,4.188,0,0,0,8.6,4.4Z" transform="translate(-1.6 -1.6)" fill="#80af50"/>
  </g>
</svg>
