<svg xmlns="http://www.w3.org/2000/svg" xmlns:xlink="http://www.w3.org/1999/xlink" width="56" height="56" viewBox="0 0 56 56">
  <defs>
    <clipPath id="clip-path">
      <rect id="Rectangle_469" data-name="Rectangle 469" width="56" height="56" transform="translate(164 154)" fill="#fef6f2"/>
    </clipPath>
  </defs>
  <g id="Mask_Group_87" data-name="Mask Group 87" transform="translate(-164 -154)" clip-path="url(#clip-path)">
    <g id="waving-hand" transform="translate(164.613 154)">
      <g id="Group_4168" data-name="Group 4168" transform="translate(35.849)">
        <g id="Group_4167" data-name="Group 4167">
          <path id="Path_2862" data-name="Path 2862" d="M38.764,8.47A26.455,26.455,0,0,0,32.624.212a.82.82,0,1,0-1.1,1.217,24.81,24.81,0,0,1,5.758,7.744.82.82,0,0,0,1.482-.7Z" transform="translate(-31.253 0)" fill="#fef6f2"/>
        </g>
      </g>
      <g id="Group_4170" data-name="Group 4170" transform="translate(33.321 4.058)">
        <g id="Group_4169" data-name="Group 4169">
          <path id="Path_2863" data-name="Path 2863" d="M34.5,9.113a21.772,21.772,0,0,0-4.015-5.4.82.82,0,1,0-1.15,1.171,20.124,20.124,0,0,1,3.712,4.992A.82.82,0,1,0,34.5,9.113Z" transform="translate(-29.086 -3.478)" fill="#fef6f2"/>
        </g>
      </g>
      <g id="Group_4172" data-name="Group 4172" transform="translate(0 26.654)">
        <g id="Group_4171" data-name="Group 4171">
          <path id="Path_2864" data-name="Path 2864" d="M7.845,31.059a24.8,24.8,0,0,1-5.758-7.744.82.82,0,0,0-1.482.7,26.454,26.454,0,0,0,6.14,8.257.82.82,0,1,0,1.1-1.217Z" transform="translate(-0.526 -22.846)" fill="#fef6f2"/>
        </g>
      </g>
      <g id="Group_4174" data-name="Group 4174" transform="translate(4.614 25.401)">
        <g id="Group_4173" data-name="Group 4173">
          <path id="Path_2865" data-name="Path 2865" d="M9.739,27.2a20.128,20.128,0,0,1-3.712-4.993.82.82,0,0,0-1.452.764,21.775,21.775,0,0,0,4.015,5.4A.82.82,0,0,0,9.739,27.2Z" transform="translate(-4.48 -21.772)" fill="#fef6f2"/>
        </g>
      </g>
      <g id="Group_4176" data-name="Group 4176" transform="translate(30.756 8.115)">
        <g id="Group_4175" data-name="Group 4175">
          <path id="Path_2866" data-name="Path 2866" d="M50.182,39.519,48.72,37.553a13.672,13.672,0,0,0,.543-5.615c-.364-3.037-1.306-3.512-1.605-5.261-.734-4.287,1.244-10.166,1.648-11.3.017-.048.027-.077.03-.088.864-2.731,1.435-4.535-1.316-5.859-2.461-1.184-5.05-.133-6.6,2.678a30.653,30.653,0,0,0-2.932,8.8L28.367,7.287a.82.82,0,0,0-1.317.979L38.379,23.5a.821.821,0,0,0,1.475-.412A28.833,28.833,0,0,1,42.861,12.9c.421-.766,1.988-3.174,4.448-1.99,1.554.747,1.27,1.182.451,3.917-.6,1.689-2.5,7.557-1.719,12.128.376,2.193,1.251,2.321,1.593,5.179a11.491,11.491,0,0,1-.123,3.482,6.861,6.861,0,0,1-1.486,2.845.82.82,0,0,0,1.261,1.05c.156-.187.3-.373.43-.556L48.866,40.5a2.03,2.03,0,0,1-.417,2.837l-1.726,1.283a.821.821,0,0,0,.49,1.479c.463,0,.539-.261,2.215-1.445A3.673,3.673,0,0,0,50.182,39.519Z" transform="translate(-26.888 -6.956)" fill="#fef6f2"/>
        </g>
      </g>
      <g id="Group_4178" data-name="Group 4178" transform="translate(23.658 43.796)">
        <g id="Group_4177" data-name="Group 4177">
          <path id="Path_2867" data-name="Path 2867" d="M45.807,41.979a.82.82,0,0,0-1.148-.169L36.738,47.7a2.052,2.052,0,0,1-2.867-.422,7.784,7.784,0,0,0-4.142-3.31c-4.877-1.449-6.52-5.1-7.446-6.1a.82.82,0,1,0-1.317.979c.866.922,2.817,5.064,8.3,6.691a6.3,6.3,0,0,1,3.293,2.716,3.7,3.7,0,0,0,5.163.759l7.921-5.889A.82.82,0,0,0,45.807,41.979Z" transform="translate(-20.804 -37.54)" fill="#fef6f2"/>
        </g>
      </g>
      <g id="Group_4181" data-name="Group 4181" transform="translate(8.264 2.071)">
        <g id="Group_4180" data-name="Group 4180">
          <g id="Group_4179" data-name="Group 4179">
            <path id="Path_2868" data-name="Path 2868" d="M9.641,23.462l-.005-.007Z" transform="translate(-7.271 1.838)" fill="#fef6f2"/>
            <path id="Path_2869" data-name="Path 2869" d="M9.633,23.452Z" transform="translate(-7.271 1.837)" fill="#fef6f2"/>
            <path id="Path_2870" data-name="Path 2870" d="M33.445,21.966,22.669,7.472h0a2.553,2.553,0,0,1,.724-3.706,2.605,2.605,0,0,1,3.414.715l1.168,1.57a.82.82,0,1,0,1.317-.979L28.124,3.5a4.207,4.207,0,0,0-7.447,1.325,4.2,4.2,0,0,0-7.283,2.1,4.158,4.158,0,0,0,.577,2.876,4.207,4.207,0,0,0-3.405,6.751l1.283,1.726a4.206,4.206,0,0,0-3.388,6.751l1.51,2.031h0l0,0,0,0L10,27.1l-.018-.025.023.031h0L20.877,41.733a.82.82,0,0,0,1.317-.979L9.778,24.055a2.56,2.56,0,0,1,2.264-4.118,2.522,2.522,0,0,1,1.793,1.018L21.3,31a.82.82,0,0,0,1.317-.979L11.882,15.579a2.6,2.6,0,0,1,.335-3.508,2.551,2.551,0,0,1,3.721.406L26.068,26.1a.82.82,0,1,0,1.317-.979L15.485,9.118a2.551,2.551,0,0,1,.58-3.612,2.609,2.609,0,0,1,3.562.626l12.5,16.812a.82.82,0,0,0,1.317-.979ZM10,27.108Z" transform="translate(-7.609 -1.775)" fill="#fef6f2"/>
          </g>
        </g>
      </g>
    </g>
  </g>
</svg>
